<svg width="69" height="39" viewBox="0 0 69 39" fill="none" xmlns="http://www.w3.org/2000/svg">
<g filter="url(#filter0_d_7_654)">
<path d="M13.255 6.98L10.735 11.48H8.215L5.695 6.98V14H2.455V1.4H5.875L9.475 8.06L13.075 1.4H16.495V14H13.255V6.98ZM22.262 11.66C22.898 11.66 23.618 11.54 24.422 11.3V10.22H21.812C21.632 10.22 21.482 10.28 21.362 10.4C21.242 10.52 21.182 10.67 21.182 10.85V11.03C21.182 11.21 21.242 11.36 21.362 11.48C21.482 11.6 21.632 11.66 21.812 11.66H22.262ZM18.932 4.64C21.128 4.4 23.108 4.28 24.872 4.28C25.688 4.28 26.342 4.526 26.834 5.018C27.326 5.51 27.572 6.164 27.572 6.98V14H24.782L24.602 13.1C24.038 13.472 23.456 13.748 22.856 13.928C22.268 14.096 21.77 14.18 21.362 14.18H20.732C19.916 14.18 19.262 13.934 18.77 13.442C18.278 12.95 18.032 12.296 18.032 11.48V10.67C18.032 9.854 18.278 9.2 18.77 8.708C19.262 8.216 19.916 7.97 20.732 7.97H24.422V7.25C24.422 7.07 24.362 6.92 24.242 6.8C24.122 6.68 23.972 6.62 23.792 6.62C23.012 6.62 22.148 6.656 21.2 6.728C20.264 6.8 19.508 6.854 18.932 6.89V4.64ZM30.2671 14.18C29.7511 14.18 29.1511 14.12 28.4671 14V11.66H29.1871C29.6431 11.66 29.8831 11.42 29.9071 10.94L30.2671 4.46H38.9071V14H35.7571V6.89H33.2371L32.9671 11.48C32.9191 12.296 32.6491 12.95 32.1571 13.442C31.6651 13.934 31.0351 14.18 30.2671 14.18ZM40.7008 14V4.46H43.8508V7.43H47.3608C48.1768 7.43 48.8308 7.676 49.3228 8.168C49.8148 8.66 50.0608 9.314 50.0608 10.13V11.3C50.0608 12.116 49.8148 12.77 49.3228 13.262C48.8308 13.754 48.1768 14 47.3608 14H40.7008ZM46.2808 11.75C46.4608 11.75 46.6108 11.69 46.7308 11.57C46.8508 11.45 46.9108 11.3 46.9108 11.12V10.328C46.9108 10.148 46.8508 9.998 46.7308 9.878C46.6108 9.758 46.4608 9.698 46.2808 9.698H43.8508V11.75H46.2808ZM54.3808 14H51.2308V4.46H54.3808V14ZM59.9671 3.56C58.4071 3.56 57.6271 2.78 57.6271 1.22V0.68H59.9671V1.13C59.9671 1.31 60.0271 1.46 60.1471 1.58C60.2671 1.7 60.4171 1.76 60.5971 1.76H61.1371C61.3171 1.76 61.4671 1.7 61.5871 1.58C61.7071 1.46 61.7671 1.31 61.7671 1.13V0.68H64.1071V1.22C64.1071 2.78 63.3271 3.56 61.7671 3.56H59.9671ZM62.3971 4.46H65.7271V14H62.5771V8.78L59.5171 14H56.1871V4.46H59.3371V9.68L62.3971 4.46ZM10.0663 27.36C10.0663 28.38 9.63433 29.262 8.77033 30.006C8.50633 30.234 8.21833 30.462 7.90633 30.69L4.03633 33.48H10.0663V36H0.346328V32.58L6.82633 27.9V27C6.82633 26.28 6.46633 25.92 5.74633 25.92H0.706328V23.4H6.46633C7.72633 23.4 8.63833 23.688 9.20233 24.264C9.77833 24.828 10.0663 25.74 10.0663 27V27.36ZM18.7035 26.82C18.7035 26.1 18.3435 25.74 17.6235 25.74H15.6435C14.9235 25.74 14.5635 26.1 14.5635 26.82V32.58C14.5635 33.3 14.9235 33.66 15.6435 33.66H17.6235C18.3435 33.66 18.7035 33.3 18.7035 32.58V26.82ZM21.9435 32.58C21.9435 33.84 21.6555 34.758 21.0795 35.334C20.5155 35.898 19.6035 36.18 18.3435 36.18H14.9235C13.6635 36.18 12.7455 35.898 12.1695 35.334C11.6055 34.758 11.3235 33.84 11.3235 32.58V26.82C11.3235 25.56 11.6055 24.648 12.1695 24.084C12.7455 23.508 13.6635 23.22 14.9235 23.22H18.3435C19.6035 23.22 20.5155 23.508 21.0795 24.084C21.6555 24.648 21.9435 25.56 21.9435 26.82V32.58ZM30.7621 26.82C30.7621 26.1 30.4021 25.74 29.6821 25.74H27.7021C26.9821 25.74 26.6221 26.1 26.6221 26.82V32.58C26.6221 33.3 26.9821 33.66 27.7021 33.66H29.6821C30.4021 33.66 30.7621 33.3 30.7621 32.58V26.82ZM34.0021 32.58C34.0021 33.84 33.7141 34.758 33.1381 35.334C32.5741 35.898 31.6621 36.18 30.4021 36.18H26.9821C25.7221 36.18 24.8041 35.898 24.2281 35.334C23.6641 34.758 23.3821 33.84 23.3821 32.58V26.82C23.3821 25.56 23.6641 24.648 24.2281 24.084C24.8041 23.508 25.7221 23.22 26.9821 23.22H30.4021C31.6621 23.22 32.5741 23.508 33.1381 24.084C33.7141 24.648 34.0021 25.56 34.0021 26.82V32.58ZM42.8207 26.82C42.8207 26.1 42.4607 25.74 41.7407 25.74H39.7607C39.0407 25.74 38.6807 26.1 38.6807 26.82V32.58C38.6807 33.3 39.0407 33.66 39.7607 33.66H41.7407C42.4607 33.66 42.8207 33.3 42.8207 32.58V26.82ZM46.0607 32.58C46.0607 33.84 45.7727 34.758 45.1967 35.334C44.6327 35.898 43.7207 36.18 42.4607 36.18H39.0407C37.7807 36.18 36.8627 35.898 36.2867 35.334C35.7227 34.758 35.4407 33.84 35.4407 32.58V26.82C35.4407 25.56 35.7227 24.648 36.2867 24.084C36.8627 23.508 37.7807 23.22 39.0407 23.22H42.4607C43.7207 23.22 44.6327 23.508 45.1967 24.084C45.7727 24.648 46.0607 25.56 46.0607 26.82V32.58ZM54.1558 36.18C53.6398 36.18 53.0398 36.12 52.3558 36V33.66H53.0758C53.5318 33.66 53.7718 33.42 53.7958 32.94L54.1558 26.46H62.7958V36H59.6458V28.89H57.1258L56.8558 33.48C56.8078 34.296 56.5378 34.95 56.0458 35.442C55.5538 35.934 54.9238 36.18 54.1558 36.18ZM64.2295 33.3H67.4695V36H64.2295V33.3Z" fill="#F1F1F1"/>
</g>
<defs>
<filter id="filter0_d_7_654" x="0.346313" y="0.679932" width="68.1232" height="37.5" filterUnits="userSpaceOnUse" color-interpolation-filters="sRGB">
<feFlood flood-opacity="0" result="BackgroundImageFix"/>
<feColorMatrix in="SourceAlpha" type="matrix" values="0 0 0 0 0 0 0 0 0 0 0 0 0 0 0 0 0 0 127 0" result="hardAlpha"/>
<feOffset dx="1" dy="2"/>
<feComposite in2="hardAlpha" operator="out"/>
<feColorMatrix type="matrix" values="0 0 0 0 0 0 0 0 0 0 0 0 0 0 0 0 0 0 0.25 0"/>
<feBlend mode="normal" in2="BackgroundImageFix" result="effect1_dropShadow_7_654"/>
<feBlend mode="normal" in="SourceGraphic" in2="effect1_dropShadow_7_654" result="shape"/>
</filter>
</defs>
</svg>
