<svg width="80" height="39" viewBox="0 0 80 39" fill="none" xmlns="http://www.w3.org/2000/svg">
<g opacity="0.7" filter="url(#filter0_d_7_656)">
<path d="M10.9328 13.82C8.25681 14.06 6.03681 14.18 4.27281 14.18C3.09681 14.18 2.23281 13.904 1.68081 13.352C1.12881 12.8 0.852813 11.936 0.852813 10.76V5C0.852813 3.74 1.13481 2.828 1.69881 2.264C2.27481 1.688 3.19281 1.4 4.45281 1.4H10.9328V3.92H5.17281C4.45281 3.92 4.09281 4.28 4.09281 5V10.76C4.09281 11.036 4.17081 11.258 4.32681 11.426C4.49481 11.582 4.70481 11.66 4.95681 11.66C5.20881 11.66 5.48481 11.66 5.78481 11.66C6.08481 11.648 6.39681 11.636 6.72081 11.624C7.04481 11.612 7.36881 11.6 7.69281 11.588C8.02881 11.576 8.45481 11.552 8.97081 11.516C9.49881 11.48 10.1528 11.438 10.9328 11.39V13.82ZM17.5049 6.89C16.8689 6.89 16.1489 7.01 15.3449 7.25V11.57H18.0449C18.5249 11.57 18.7649 11.33 18.7649 10.85V7.52C18.7649 7.34 18.7049 7.19 18.5849 7.07C18.4649 6.95 18.3149 6.89 18.1349 6.89H17.5049ZM15.3449 14V17.06H12.1949V4.46H14.9849L15.1649 5.36C15.7289 4.988 16.3049 4.718 16.8929 4.55C17.4929 4.37 17.9969 4.28 18.4049 4.28H19.2149C20.0309 4.28 20.6849 4.526 21.1769 5.018C21.6689 5.51 21.9149 6.164 21.9149 6.98V11.12C21.9149 12.02 21.6569 12.728 21.1409 13.244C20.6369 13.748 19.9349 14 19.0349 14H15.3449ZM27.2228 6.53C26.7428 6.53 26.5028 6.77 26.5028 7.25V8.24H29.5628V7.25C29.5628 6.77 29.3228 6.53 28.8428 6.53H27.2228ZM32.3528 13.82C30.0368 14.06 27.9368 14.18 26.0528 14.18C25.2368 14.18 24.5828 13.934 24.0908 13.442C23.5988 12.95 23.3528 12.296 23.3528 11.48V7.16C23.3528 6.26 23.6048 5.558 24.1088 5.054C24.6248 4.538 25.3328 4.28 26.2328 4.28H29.8328C30.7328 4.28 31.4348 4.538 31.9388 5.054C32.4548 5.558 32.7128 6.26 32.7128 7.16V10.49H26.5028V11.21C26.5028 11.39 26.5628 11.54 26.6828 11.66C26.8028 11.78 26.9528 11.84 27.1328 11.84C28.3208 11.84 30.0608 11.75 32.3528 11.57V13.82ZM38.5558 9.5C38.4958 10.34 38.2558 11.03 37.8358 11.57H40.9858V6.89H38.7358L38.5558 9.5ZM44.1358 4.46V11.57H45.4858V16.16H42.4978L42.3178 14H36.7738L36.5938 16.16H33.6058V11.57H34.7758C35.2558 11.006 35.5258 10.376 35.5858 9.68L35.9458 4.46H44.1358ZM53.1435 7.97V4.46H56.2935V14H53.1435V10.4H49.9035V14H46.7535V4.46H49.9035V7.97H53.1435ZM64.3014 4.46H67.6314V14H64.4814V8.78L61.4214 14H58.0914V4.46H61.2414V9.68L64.3014 4.46ZM73.2093 3.56C71.6493 3.56 70.8693 2.78 70.8693 1.22V0.68H73.2093V1.13C73.2093 1.31 73.2693 1.46 73.3893 1.58C73.5093 1.7 73.6593 1.76 73.8393 1.76H74.3793C74.5593 1.76 74.7093 1.7 74.8293 1.58C74.9493 1.46 75.0093 1.31 75.0093 1.13V0.68H77.3493V1.22C77.3493 2.78 76.5693 3.56 75.0093 3.56H73.2093ZM75.6393 4.46H78.9693V14H75.8193V8.78L72.7593 14H69.4293V4.46H72.5793V9.68L75.6393 4.46ZM9.76598 23.22C11.41 23.22 13.39 23.34 15.706 23.58V26.01C15.046 25.974 14.482 25.944 14.014 25.92C13.558 25.884 13.18 25.86 12.88 25.848C12.592 25.824 12.304 25.8 12.016 25.776C11.536 25.752 11.092 25.74 10.684 25.74C9.95198 25.74 9.58598 26.04 9.58598 26.64V28.26C10.75 28.02 11.77 27.9 12.646 27.9H13.906C14.722 27.9 15.376 28.146 15.868 28.638C16.36 29.13 16.606 29.784 16.606 30.6V32.94C16.606 34.032 16.33 34.848 15.778 35.388C15.226 35.916 14.362 36.18 13.186 36.18H9.76598C8.58998 36.18 7.72598 35.916 7.17398 35.388C6.62198 34.848 6.34598 34.032 6.34598 32.94V26.64C6.34598 25.464 6.62198 24.6 7.17398 24.048C7.72598 23.496 8.58998 23.22 9.76598 23.22ZM11.746 30.42C11.29 30.42 10.87 30.444 10.486 30.492C10.114 30.54 9.81398 30.576 9.58598 30.6V32.58C9.58598 33.3 9.94598 33.66 10.666 33.66H12.286C13.006 33.66 13.366 33.3 13.366 32.58V31.05C13.366 30.87 13.306 30.72 13.186 30.6C13.066 30.48 12.916 30.42 12.736 30.42H11.746ZM25.0639 26.82C25.0639 26.1 24.7039 25.74 23.9839 25.74H22.0039C21.2839 25.74 20.9239 26.1 20.9239 26.82V32.58C20.9239 33.3 21.2839 33.66 22.0039 33.66H23.9839C24.7039 33.66 25.0639 33.3 25.0639 32.58V26.82ZM28.3039 32.58C28.3039 33.84 28.0159 34.758 27.4399 35.334C26.8759 35.898 25.9639 36.18 24.7039 36.18H21.2839C20.0239 36.18 19.1059 35.898 18.5299 35.334C17.9659 34.758 17.6839 33.84 17.6839 32.58V26.82C17.6839 25.56 17.9659 24.648 18.5299 24.084C19.1059 23.508 20.0239 23.22 21.2839 23.22H24.7039C25.9639 23.22 26.8759 23.508 27.4399 24.084C28.0159 24.648 28.3039 25.56 28.3039 26.82V32.58ZM37.1225 26.82C37.1225 26.1 36.7625 25.74 36.0425 25.74H34.0625C33.3425 25.74 32.9825 26.1 32.9825 26.82V32.58C32.9825 33.3 33.3425 33.66 34.0625 33.66H36.0425C36.7625 33.66 37.1225 33.3 37.1225 32.58V26.82ZM40.3625 32.58C40.3625 33.84 40.0745 34.758 39.4985 35.334C38.9345 35.898 38.0225 36.18 36.7625 36.18H33.3425C32.0825 36.18 31.1645 35.898 30.5885 35.334C30.0245 34.758 29.7425 33.84 29.7425 32.58V26.82C29.7425 25.56 30.0245 24.648 30.5885 24.084C31.1645 23.508 32.0825 23.22 33.3425 23.22H36.7625C38.0225 23.22 38.9345 23.508 39.4985 24.084C40.0745 24.648 40.3625 25.56 40.3625 26.82V32.58ZM49.1811 26.82C49.1811 26.1 48.8211 25.74 48.1011 25.74H46.1211C45.4011 25.74 45.0411 26.1 45.0411 26.82V32.58C45.0411 33.3 45.4011 33.66 46.1211 33.66H48.1011C48.8211 33.66 49.1811 33.3 49.1811 32.58V26.82ZM52.4211 32.58C52.4211 33.84 52.1331 34.758 51.5571 35.334C50.9931 35.898 50.0811 36.18 48.8211 36.18H45.4011C44.1411 36.18 43.2231 35.898 42.6471 35.334C42.0831 34.758 41.8011 33.84 41.8011 32.58V26.82C41.8011 25.56 42.0831 24.648 42.6471 24.084C43.2231 23.508 44.1411 23.22 45.4011 23.22H48.8211C50.0811 23.22 50.9931 23.508 51.5571 24.084C52.1331 24.648 52.4211 25.56 52.4211 26.82V32.58ZM60.5161 36.18C60.0001 36.18 59.4001 36.12 58.7161 36V33.66H59.4361C59.8921 33.66 60.1321 33.42 60.1561 32.94L60.5161 26.46H69.1561V36H66.0061V28.89H63.4861L63.2161 33.48C63.1681 34.296 62.8981 34.95 62.4061 35.442C61.9141 35.934 61.2841 36.18 60.5161 36.18ZM70.5898 33.3H73.8298V36H70.5898V33.3Z" fill="#F1F1F1"/>
</g>
<defs>
<filter id="filter0_d_7_656" x="0.852783" y="0.679932" width="79.1165" height="37.5" filterUnits="userSpaceOnUse" color-interpolation-filters="sRGB">
<feFlood flood-opacity="0" result="BackgroundImageFix"/>
<feColorMatrix in="SourceAlpha" type="matrix" values="0 0 0 0 0 0 0 0 0 0 0 0 0 0 0 0 0 0 127 0" result="hardAlpha"/>
<feOffset dx="1" dy="2"/>
<feComposite in2="hardAlpha" operator="out"/>
<feColorMatrix type="matrix" values="0 0 0 0 0 0 0 0 0 0 0 0 0 0 0 0 0 0 0.25 0"/>
<feBlend mode="normal" in2="BackgroundImageFix" result="effect1_dropShadow_7_656"/>
<feBlend mode="normal" in="SourceGraphic" in2="effect1_dropShadow_7_656" result="shape"/>
</filter>
</defs>
</svg>
