<svg width="124" height="39" viewBox="0 0 124 39" fill="none" xmlns="http://www.w3.org/2000/svg">
<g opacity="0.7" filter="url(#filter0_d_7_659)">
<path d="M10.9602 13.82C8.28416 14.06 6.06416 14.18 4.30016 14.18C3.12416 14.18 2.26016 13.904 1.70816 13.352C1.15616 12.8 0.880156 11.936 0.880156 10.76V5C0.880156 3.74 1.16216 2.828 1.72616 2.264C2.30216 1.688 3.22016 1.4 4.48016 1.4H10.9602V3.92H5.20016C4.48016 3.92 4.12016 4.28 4.12016 5V10.76C4.12016 11.036 4.19816 11.258 4.35416 11.426C4.52216 11.582 4.73216 11.66 4.98416 11.66C5.23616 11.66 5.51216 11.66 5.81216 11.66C6.11216 11.648 6.42416 11.636 6.74816 11.624C7.07216 11.612 7.39616 11.6 7.72016 11.588C8.05616 11.576 8.48216 11.552 8.99816 11.516C9.52616 11.48 10.1802 11.438 10.9602 11.39V13.82ZM16.9016 6.89V14H13.7516V6.89H10.7816V4.46H19.8716V6.89H16.9016ZM24.387 11.66C25.023 11.66 25.743 11.54 26.547 11.3V10.22H23.937C23.757 10.22 23.607 10.28 23.487 10.4C23.367 10.52 23.307 10.67 23.307 10.85V11.03C23.307 11.21 23.367 11.36 23.487 11.48C23.607 11.6 23.757 11.66 23.937 11.66H24.387ZM21.057 4.64C23.253 4.4 25.233 4.28 26.997 4.28C27.813 4.28 28.467 4.526 28.959 5.018C29.451 5.51 29.697 6.164 29.697 6.98V14H26.907L26.727 13.1C26.163 13.472 25.581 13.748 24.981 13.928C24.393 14.096 23.895 14.18 23.487 14.18H22.857C22.041 14.18 21.387 13.934 20.895 13.442C20.403 12.95 20.157 12.296 20.157 11.48V10.67C20.157 9.854 20.403 9.2 20.895 8.708C21.387 8.216 22.041 7.97 22.857 7.97H26.547V7.25C26.547 7.07 26.487 6.92 26.367 6.8C26.247 6.68 26.097 6.62 25.917 6.62C25.137 6.62 24.273 6.656 23.325 6.728C22.389 6.8 21.633 6.854 21.057 6.89V4.64ZM37.7021 7.97V4.46H40.8521V14H37.7021V10.4H34.4621V14H31.3121V4.46H34.4621V7.97H37.7021ZM46.88 9.5C46.82 10.34 46.58 11.03 46.16 11.57H49.31V6.89H47.06L46.88 9.5ZM52.46 4.46V11.57H53.81V16.16H50.822L50.642 14H45.098L44.918 16.16H41.93V11.57H43.1C43.58 11.006 43.85 10.376 43.91 9.68L44.27 4.46H52.46ZM58.8577 11.66C59.4937 11.66 60.2137 11.54 61.0177 11.3V10.22H58.4077C58.2277 10.22 58.0777 10.28 57.9577 10.4C57.8377 10.52 57.7777 10.67 57.7777 10.85V11.03C57.7777 11.21 57.8377 11.36 57.9577 11.48C58.0777 11.6 58.2277 11.66 58.4077 11.66H58.8577ZM55.5277 4.64C57.7237 4.4 59.7037 4.28 61.4677 4.28C62.2837 4.28 62.9377 4.526 63.4297 5.018C63.9217 5.51 64.1677 6.164 64.1677 6.98V14H61.3777L61.1977 13.1C60.6337 13.472 60.0517 13.748 59.4517 13.928C58.8637 14.096 58.3657 14.18 57.9577 14.18H57.3277C56.5117 14.18 55.8577 13.934 55.3657 13.442C54.8737 12.95 54.6277 12.296 54.6277 11.48V10.67C54.6277 9.854 54.8737 9.2 55.3657 8.708C55.8577 8.216 56.5117 7.97 57.3277 7.97H61.0177V7.25C61.0177 7.07 60.9577 6.92 60.8377 6.8C60.7177 6.68 60.5677 6.62 60.3877 6.62C59.6077 6.62 58.7437 6.656 57.7957 6.728C56.8597 6.8 56.1037 6.854 55.5277 6.89V4.64ZM71.0928 6.89C70.4568 6.89 69.7368 7.01 68.9328 7.25V11.57H71.6328C72.1128 11.57 72.3528 11.33 72.3528 10.85V7.52C72.3528 7.34 72.2928 7.19 72.1728 7.07C72.0528 6.95 71.9028 6.89 71.7228 6.89H71.0928ZM68.9328 14V17.06H65.7828V4.46H68.5728L68.7528 5.36C69.3168 4.988 69.8928 4.718 70.4808 4.55C71.0808 4.37 71.5848 4.28 71.9928 4.28H72.8028C73.6188 4.28 74.2728 4.526 74.7648 5.018C75.2568 5.51 75.5028 6.164 75.5028 6.98V11.12C75.5028 12.02 75.2448 12.728 74.7288 13.244C74.2248 13.748 73.5228 14 72.6228 14H68.9328ZM82.5207 6.89V14H79.3707V6.89H76.4007V4.46H85.4907V6.89H82.5207ZM92.9677 7.97V4.46H96.1177V14H92.9677V10.4H89.7277V14H86.5777V4.46H89.7277V7.97H92.9677ZM97.9156 14V4.46H101.066V7.43H104.576C105.392 7.43 106.046 7.676 106.538 8.168C107.03 8.66 107.276 9.314 107.276 10.13V11.3C107.276 12.116 107.03 12.77 106.538 13.262C106.046 13.754 105.392 14 104.576 14H97.9156ZM103.496 11.75C103.676 11.75 103.826 11.69 103.946 11.57C104.066 11.45 104.126 11.3 104.126 11.12V10.328C104.126 10.148 104.066 9.998 103.946 9.878C103.826 9.758 103.676 9.698 103.496 9.698H101.066V11.75H103.496ZM111.596 14H108.446V4.46H111.596V14ZM117.182 3.56C115.622 3.56 114.842 2.78 114.842 1.22V0.68H117.182V1.13C117.182 1.31 117.242 1.46 117.362 1.58C117.482 1.7 117.632 1.76 117.812 1.76H118.352C118.532 1.76 118.682 1.7 118.802 1.58C118.922 1.46 118.982 1.31 118.982 1.13V0.68H121.322V1.22C121.322 2.78 120.542 3.56 118.982 3.56H117.182ZM119.612 4.46H122.942V14H119.792V8.78L116.732 14H113.402V4.46H116.552V9.68L119.612 4.46ZM23.8899 36V26.19L21.8199 26.91L20.9199 24.84L24.2499 23.4H27.1299V36H23.8899ZM36.3148 26.82C36.3148 26.1 35.9548 25.74 35.2348 25.74H33.2548C32.5348 25.74 32.1748 26.1 32.1748 26.82V32.58C32.1748 33.3 32.5348 33.66 33.2548 33.66H35.2348C35.9548 33.66 36.3148 33.3 36.3148 32.58V26.82ZM39.5548 32.58C39.5548 33.84 39.2668 34.758 38.6908 35.334C38.1268 35.898 37.2148 36.18 35.9548 36.18H32.5348C31.2748 36.18 30.3568 35.898 29.7808 35.334C29.2168 34.758 28.9348 33.84 28.9348 32.58V26.82C28.9348 25.56 29.2168 24.648 29.7808 24.084C30.3568 23.508 31.2748 23.22 32.5348 23.22H35.9548C37.2148 23.22 38.1268 23.508 38.6908 24.084C39.2668 24.648 39.5548 25.56 39.5548 26.82V32.58ZM53.7699 26.82C53.7699 26.1 53.4099 25.74 52.6899 25.74H50.7099C49.9899 25.74 49.6299 26.1 49.6299 26.82V32.58C49.6299 33.3 49.9899 33.66 50.7099 33.66H52.6899C53.4099 33.66 53.7699 33.3 53.7699 32.58V26.82ZM57.0099 32.58C57.0099 33.84 56.7219 34.758 56.1459 35.334C55.5819 35.898 54.6699 36.18 53.4099 36.18H49.9899C48.7299 36.18 47.8119 35.898 47.2359 35.334C46.6719 34.758 46.3899 33.84 46.3899 32.58V26.82C46.3899 25.56 46.6719 24.648 47.2359 24.084C47.8119 23.508 48.7299 23.22 49.9899 23.22H53.4099C54.6699 23.22 55.5819 23.508 56.1459 24.084C56.7219 24.648 57.0099 25.56 57.0099 26.82V32.58ZM65.8285 26.82C65.8285 26.1 65.4685 25.74 64.7485 25.74H62.7685C62.0485 25.74 61.6885 26.1 61.6885 26.82V32.58C61.6885 33.3 62.0485 33.66 62.7685 33.66H64.7485C65.4685 33.66 65.8285 33.3 65.8285 32.58V26.82ZM69.0685 32.58C69.0685 33.84 68.7805 34.758 68.2045 35.334C67.6405 35.898 66.7285 36.18 65.4685 36.18H62.0485C60.7885 36.18 59.8705 35.898 59.2945 35.334C58.7305 34.758 58.4485 33.84 58.4485 32.58V26.82C58.4485 25.56 58.7305 24.648 59.2945 24.084C59.8705 23.508 60.7885 23.22 62.0485 23.22H65.4685C66.7285 23.22 67.6405 23.508 68.2045 24.084C68.7805 24.648 69.0685 25.56 69.0685 26.82V32.58ZM77.8871 26.82C77.8871 26.1 77.5271 25.74 76.8071 25.74H74.8271C74.1071 25.74 73.7471 26.1 73.7471 26.82V32.58C73.7471 33.3 74.1071 33.66 74.8271 33.66H76.8071C77.5271 33.66 77.8871 33.3 77.8871 32.58V26.82ZM81.1271 32.58C81.1271 33.84 80.8391 34.758 80.2631 35.334C79.6991 35.898 78.7871 36.18 77.5271 36.18H74.1071C72.8471 36.18 71.9291 35.898 71.3531 35.334C70.7891 34.758 70.5071 33.84 70.5071 32.58V26.82C70.5071 25.56 70.7891 24.648 71.3531 24.084C71.9291 23.508 72.8471 23.22 74.1071 23.22H77.5271C78.7871 23.22 79.6991 23.508 80.2631 24.084C80.8391 24.648 81.1271 25.56 81.1271 26.82V32.58ZM89.2222 36.18C88.7062 36.18 88.1062 36.12 87.4222 36V33.66H88.1422C88.5982 33.66 88.8382 33.42 88.8622 32.94L89.2222 26.46H97.8622V36H94.7122V28.89H92.1922L91.9222 33.48C91.8742 34.296 91.6042 34.95 91.1122 35.442C90.6202 35.934 89.9902 36.18 89.2222 36.18ZM99.2959 33.3H102.536V36H99.2959V33.3Z" fill="#F1F1F1"/>
</g>
<defs>
<filter id="filter0_d_7_659" x="0.880127" y="0.679932" width="123.062" height="37.5" filterUnits="userSpaceOnUse" color-interpolation-filters="sRGB">
<feFlood flood-opacity="0" result="BackgroundImageFix"/>
<feColorMatrix in="SourceAlpha" type="matrix" values="0 0 0 0 0 0 0 0 0 0 0 0 0 0 0 0 0 0 127 0" result="hardAlpha"/>
<feOffset dx="1" dy="2"/>
<feComposite in2="hardAlpha" operator="out"/>
<feColorMatrix type="matrix" values="0 0 0 0 0 0 0 0 0 0 0 0 0 0 0 0 0 0 0.25 0"/>
<feBlend mode="normal" in2="BackgroundImageFix" result="effect1_dropShadow_7_659"/>
<feBlend mode="normal" in="SourceGraphic" in2="effect1_dropShadow_7_659" result="shape"/>
</filter>
</defs>
</svg>
