<svg width="87" height="39" viewBox="0 0 87 39" fill="none" xmlns="http://www.w3.org/2000/svg">
<g opacity="0.7" filter="url(#filter0_d_7_661)">
<path d="M10.7308 4.82C10.7308 4.1 10.3708 3.74 9.65078 3.74H6.59078C5.87078 3.74 5.51078 4.1 5.51078 4.82V10.58C5.51078 11.3 5.87078 11.66 6.59078 11.66H9.65078C10.3708 11.66 10.7308 11.3 10.7308 10.58V4.82ZM13.9708 10.58C13.9708 11.84 13.6828 12.758 13.1068 13.334C12.5428 13.898 11.6308 14.18 10.3708 14.18H5.87078C4.61078 14.18 3.69278 13.898 3.11678 13.334C2.55278 12.758 2.27078 11.84 2.27078 10.58V4.82C2.27078 3.56 2.55278 2.648 3.11678 2.084C3.69278 1.508 4.61078 1.22 5.87078 1.22H10.3708C11.6308 1.22 12.5428 1.508 13.1068 2.084C13.6828 2.648 13.9708 3.56 13.9708 4.82V10.58ZM25.1392 4.46V14H21.9892V6.89H18.7492V14H15.5992V4.46H25.1392ZM32.3371 6.89V14H29.1871V6.89H26.2171V4.46H35.3071V6.89H32.3371ZM46.1141 11.3C46.1141 12.2 45.8561 12.908 45.3401 13.424C44.8361 13.928 44.1341 14.18 43.2341 14.18H39.0941C38.1941 14.18 37.4861 13.928 36.9701 13.424C36.4661 12.908 36.2141 12.2 36.2141 11.3V7.16C36.2141 6.26 36.4661 5.558 36.9701 5.054C37.4861 4.538 38.1941 4.28 39.0941 4.28H43.2341C44.1341 4.28 44.8361 4.538 45.3401 5.054C45.8561 5.558 46.1141 6.26 46.1141 7.16V11.3ZM42.9641 7.43C42.9641 6.95 42.7241 6.71 42.2441 6.71H40.0841C39.6041 6.71 39.3641 6.95 39.3641 7.43V11.03C39.3641 11.51 39.6041 11.75 40.0841 11.75H42.2441C42.7241 11.75 42.9641 11.51 42.9641 11.03V7.43ZM54.572 14H47.732V4.46H54.032C54.836 4.46 55.484 4.7 55.976 5.18C56.48 5.648 56.732 6.176 56.732 6.764C56.732 7.352 56.606 7.832 56.354 8.204C56.102 8.576 55.748 8.828 55.292 8.96C55.832 9.056 56.294 9.32 56.678 9.752C57.074 10.184 57.272 10.76 57.272 11.48C57.272 12.2 57.02 12.8 56.516 13.28C56.024 13.76 55.376 14 54.572 14ZM54.122 10.94C54.122 10.76 54.062 10.61 53.942 10.49C53.822 10.37 53.672 10.31 53.492 10.31H50.882V11.84H53.492C53.672 11.84 53.822 11.78 53.942 11.66C54.062 11.54 54.122 11.39 54.122 11.21V10.94ZM53.582 7.25C53.582 7.07 53.522 6.92 53.402 6.8C53.282 6.68 53.132 6.62 52.952 6.62H50.882V8.24H52.952C53.132 8.24 53.282 8.18 53.402 8.06C53.522 7.94 53.582 7.79 53.582 7.61V7.25ZM58.525 14V4.46H61.675V7.43H65.185C66.001 7.43 66.655 7.676 67.147 8.168C67.639 8.66 67.885 9.314 67.885 10.13V11.3C67.885 12.116 67.639 12.77 67.147 13.262C66.655 13.754 66.001 14 65.185 14H58.525ZM64.105 11.75C64.285 11.75 64.435 11.69 64.555 11.57C64.675 11.45 64.735 11.3 64.735 11.12V10.328C64.735 10.148 64.675 9.998 64.555 9.878C64.435 9.758 64.285 9.698 64.105 9.698H61.675V11.75H64.105ZM72.205 14H69.055V4.46H72.205V14ZM77.7913 3.56C76.2313 3.56 75.4513 2.78 75.4513 1.22V0.68H77.7913V1.13C77.7913 1.31 77.8513 1.46 77.9713 1.58C78.0913 1.7 78.2413 1.76 78.4213 1.76H78.9613C79.1413 1.76 79.2913 1.7 79.4113 1.58C79.5313 1.46 79.5913 1.31 79.5913 1.13V0.68H81.9313V1.22C81.9313 2.78 81.1513 3.56 79.5913 3.56H77.7913ZM80.2213 4.46H83.5513V14H80.4013V8.78L77.3413 14H74.0113V4.46H77.1613V9.68L80.2213 4.46ZM6.73387 33.48H0.0738672V30.96L4.39387 23.4H7.99387L3.67387 30.96H6.73387V28.26H9.97387V30.96H11.2339V33.48H9.97387V36H6.73387V33.48ZM19.5209 26.82C19.5209 26.1 19.1609 25.74 18.4409 25.74H16.4609C15.7409 25.74 15.3809 26.1 15.3809 26.82V32.58C15.3809 33.3 15.7409 33.66 16.4609 33.66H18.4409C19.1609 33.66 19.5209 33.3 19.5209 32.58V26.82ZM22.7609 32.58C22.7609 33.84 22.4729 34.758 21.8969 35.334C21.3329 35.898 20.4209 36.18 19.1609 36.18H15.7409C14.4809 36.18 13.5629 35.898 12.9869 35.334C12.4229 34.758 12.1409 33.84 12.1409 32.58V26.82C12.1409 25.56 12.4229 24.648 12.9869 24.084C13.5629 23.508 14.4809 23.22 15.7409 23.22H19.1609C20.4209 23.22 21.3329 23.508 21.8969 24.084C22.4729 24.648 22.7609 25.56 22.7609 26.82V32.58ZM36.976 26.82C36.976 26.1 36.616 25.74 35.896 25.74H33.916C33.196 25.74 32.836 26.1 32.836 26.82V32.58C32.836 33.3 33.196 33.66 33.916 33.66H35.896C36.616 33.66 36.976 33.3 36.976 32.58V26.82ZM40.216 32.58C40.216 33.84 39.928 34.758 39.352 35.334C38.788 35.898 37.876 36.18 36.616 36.18H33.196C31.936 36.18 31.018 35.898 30.442 35.334C29.878 34.758 29.596 33.84 29.596 32.58V26.82C29.596 25.56 29.878 24.648 30.442 24.084C31.018 23.508 31.936 23.22 33.196 23.22H36.616C37.876 23.22 38.788 23.508 39.352 24.084C39.928 24.648 40.216 25.56 40.216 26.82V32.58ZM49.0346 26.82C49.0346 26.1 48.6746 25.74 47.9546 25.74H45.9746C45.2546 25.74 44.8946 26.1 44.8946 26.82V32.58C44.8946 33.3 45.2546 33.66 45.9746 33.66H47.9546C48.6746 33.66 49.0346 33.3 49.0346 32.58V26.82ZM52.2746 32.58C52.2746 33.84 51.9866 34.758 51.4106 35.334C50.8466 35.898 49.9346 36.18 48.6746 36.18H45.2546C43.9946 36.18 43.0766 35.898 42.5006 35.334C41.9366 34.758 41.6546 33.84 41.6546 32.58V26.82C41.6546 25.56 41.9366 24.648 42.5006 24.084C43.0766 23.508 43.9946 23.22 45.2546 23.22H48.6746C49.9346 23.22 50.8466 23.508 51.4106 24.084C51.9866 24.648 52.2746 25.56 52.2746 26.82V32.58ZM61.0932 26.82C61.0932 26.1 60.7332 25.74 60.0132 25.74H58.0332C57.3132 25.74 56.9532 26.1 56.9532 26.82V32.58C56.9532 33.3 57.3132 33.66 58.0332 33.66H60.0132C60.7332 33.66 61.0932 33.3 61.0932 32.58V26.82ZM64.3332 32.58C64.3332 33.84 64.0452 34.758 63.4692 35.334C62.9052 35.898 61.9932 36.18 60.7332 36.18H57.3132C56.0532 36.18 55.1352 35.898 54.5592 35.334C53.9952 34.758 53.7132 33.84 53.7132 32.58V26.82C53.7132 25.56 53.9952 24.648 54.5592 24.084C55.1352 23.508 56.0532 23.22 57.3132 23.22H60.7332C61.9932 23.22 62.9052 23.508 63.4692 24.084C64.0452 24.648 64.3332 25.56 64.3332 26.82V32.58ZM72.4282 36.18C71.9122 36.18 71.3122 36.12 70.6282 36V33.66H71.3482C71.8042 33.66 72.0442 33.42 72.0682 32.94L72.4282 26.46H81.0682V36H77.9182V28.89H75.3982L75.1282 33.48C75.0802 34.296 74.8102 34.95 74.3182 35.442C73.8262 35.934 73.1962 36.18 72.4282 36.18ZM82.5019 33.3H85.7419V36H82.5019V33.3Z" fill="#F1F1F1"/>
</g>
<defs>
<filter id="filter0_d_7_661" x="0.0738525" y="0.679932" width="86.6681" height="37.5" filterUnits="userSpaceOnUse" color-interpolation-filters="sRGB">
<feFlood flood-opacity="0" result="BackgroundImageFix"/>
<feColorMatrix in="SourceAlpha" type="matrix" values="0 0 0 0 0 0 0 0 0 0 0 0 0 0 0 0 0 0 127 0" result="hardAlpha"/>
<feOffset dx="1" dy="2"/>
<feComposite in2="hardAlpha" operator="out"/>
<feColorMatrix type="matrix" values="0 0 0 0 0 0 0 0 0 0 0 0 0 0 0 0 0 0 0.25 0"/>
<feBlend mode="normal" in2="BackgroundImageFix" result="effect1_dropShadow_7_661"/>
<feBlend mode="normal" in="SourceGraphic" in2="effect1_dropShadow_7_661" result="shape"/>
</filter>
</defs>
</svg>
